<?xml version="1.0" encoding="UTF-8"?>
<svg version="1.1" xmlns="http://www.w3.org/2000/svg" width="1600" height="727">
<path d="M0 0 C528 0 1056 0 1600 0 C1600 239.91 1600 479.82 1600 727 C1072 727 544 727 0 727 C0 487.09 0 247.18 0 0 Z " fill="#29704F" transform="translate(0,0)"/>
<path d="M0 0 C50.49 0 100.98 0 153 0 C153 239.91 153 479.82 153 727 C102.51 727 52.02 727 0 727 C0 487.09 0 247.18 0 0 Z " fill="#000000" transform="translate(0,0)"/>
<path d="M0 0 C50.49 0 100.98 0 153 0 C153 239.91 153 479.82 153 727 C102.51 727 52.02 727 0 727 C0 517.45 0 307.9 0 92 C33 91.67 66 91.34 100 91 C109.59794183 88.55619606 109.59794183 88.55619606 117.44140625 83.98828125 C119 83 119 83 121 83 C121.495 81.515 121.495 81.515 122 80 C122.66 80 123.32 80 124 80 C124.37125 79.0409375 124.37125 79.0409375 124.75 78.0625 C126.68694853 73.31697611 128.70711641 68.58576719 131 64 C131.81140637 52.39064739 130.64946739 42.63947659 123.796875 33.0390625 C118.49646414 27.02424844 110.58784941 22.66823283 102.59451294 21.71233559 C99.8771484 21.59364596 97.17309042 21.56353133 94.453125 21.56762695 C93.42783188 21.5574353 92.40253876 21.54724365 91.34617615 21.53674316 C87.98072776 21.50671687 84.6155645 21.49736289 81.25 21.48828125 C78.9072984 21.47142692 76.5646058 21.45327567 74.22192383 21.43388367 C68.07353529 21.38645972 61.92518326 21.35660099 55.77667236 21.33044434 C49.49557284 21.30060056 43.21459899 21.25408329 36.93359375 21.20898438 C24.62244725 21.12303756 12.31131368 21.05719578 0 21 C0 14.07 0 7.14 0 0 Z " fill="#000000" transform="translate(1447,0)"/>
<path d="M0 0 C0.33 0 0.66 0 1 0 C1 6.93 1 13.86 1 21 C4.12839355 20.97905273 7.25678711 20.95810547 10.47998047 20.93652344 C20.83752428 20.87012643 31.19507769 20.82601382 41.55277824 20.79275131 C47.83022227 20.77191213 54.1074475 20.74366106 60.38476562 20.69824219 C66.4472378 20.65465429 72.50950002 20.63083531 78.57211685 20.62049103 C80.88048734 20.61312293 83.18884686 20.59873489 85.49712753 20.57707977 C88.74035874 20.54787444 91.98273184 20.54405124 95.22607422 20.54589844 C96.17194901 20.53151733 97.11782379 20.51713623 98.09236145 20.50231934 C108.69602041 20.56730346 117.41351186 24.65387584 125 32 C131.88932511 40.26375406 133.59548889 50.07858202 133.35546875 60.59375 C132.83492564 65.58181141 131.34379878 69.59823156 129 74 C128.443125 75.051875 127.88625 76.10375 127.3125 77.1875 C120.36217223 85.64060134 111.57924149 89.8841517 101 92 C68 92 35 92 1 92 C1 301.55 1 511.1 1 727 C0.67 727 0.34 727 0 727 C-0.33 517.78 -0.66 308.56 -1 93 C-3.97 92.34 -6.94 91.68 -10 91 C-11.32 90.67 -12.64 90.34 -14 90 C-14 89.34 -14 88.68 -14 88 C-15.32 88 -16.64 88 -18 88 C-18 87.34 -18 86.68 -18 86 C-19.32 86 -20.64 86 -22 86 C-22 85.34 -22 84.68 -22 84 C-23.32 83.34 -24.64 82.68 -26 82 C-26 81.34 -26 80.68 -26 80 C-26.66 80 -27.32 80 -28 80 C-28.433125 79.0409375 -28.433125 79.0409375 -28.875 78.0625 C-29.82823451 75.84793921 -29.82823451 75.84793921 -32 75 C-32 74.01 -32 73.02 -32 72 C-32.66 72 -33.32 72 -34 72 C-36.89171239 63.32486283 -37.77705685 51.86115755 -34.625 43.125 C-33 40 -33 40 -31 38 C-30.3574765 35.93125966 -30.3574765 35.93125966 -30 34 C-29.34 34 -28.68 34 -28 34 C-28 33.34 -28 32.68 -28 32 C-27.34 32 -26.68 32 -26 32 C-25.8040625 31.24332031 -25.608125 30.48664062 -25.40625 29.70703125 C-23.46162776 25.96363344 -21.34923098 25.30668738 -17.5 23.6875 C-16.3346875 23.17574219 -15.169375 22.66398437 -13.96875 22.13671875 C-10 21 -10 21 0 21 C0 14.07 0 7.14 0 0 Z " fill="#164718" transform="translate(1446,0)"/>
<path d="M0 0 C0.33 0 0.66 0 1 0 C1.08912023 19.01355422 0.82575231 38.01799994 0.53643799 57.02862549 C0.47486505 61.09914334 0.41526237 65.16969006 0.35546875 69.24023438 C0.23885207 77.16018492 0.12013819 85.08010209 0 93 C-1.58357459 92.68872484 -3.16684993 92.37592711 -4.75 92.0625 C-5.63171875 91.88847656 -6.5134375 91.71445313 -7.421875 91.53515625 C-9.63235053 91.07631512 -11.81512068 90.56663926 -14 90 C-14 89.34 -14 88.68 -14 88 C-15.32 88 -16.64 88 -18 88 C-18 87.34 -18 86.68 -18 86 C-19.32 86 -20.64 86 -22 86 C-22 85.34 -22 84.68 -22 84 C-23.32 83.34 -24.64 82.68 -26 82 C-26 81.34 -26 80.68 -26 80 C-26.66 80 -27.32 80 -28 80 C-28.433125 79.0409375 -28.433125 79.0409375 -28.875 78.0625 C-29.82823451 75.84793921 -29.82823451 75.84793921 -32 75 C-32 74.01 -32 73.02 -32 72 C-32.66 72 -33.32 72 -34 72 C-36.89171239 63.32486283 -37.77705685 51.86115755 -34.625 43.125 C-33 40 -33 40 -31 38 C-30.3574765 35.93125966 -30.3574765 35.93125966 -30 34 C-29.34 34 -28.68 34 -28 34 C-28 33.34 -28 32.68 -28 32 C-27.34 32 -26.68 32 -26 32 C-25.8040625 31.24332031 -25.608125 30.48664062 -25.40625 29.70703125 C-23.46162776 25.96363344 -21.34923098 25.30668738 -17.5 23.6875 C-16.3346875 23.17574219 -15.169375 22.66398437 -13.96875 22.13671875 C-10 21 -10 21 0 21 C0 14.07 0 7.14 0 0 Z " fill="#1D6028" transform="translate(1446,0)"/>
<path d="M0 0 C0.33 0 0.66 0 1 0 C2.00912747 9.91107336 2.04255295 19.72539961 1.97827148 29.67602539 C1.94334696 38.5652694 2.22567296 47.41367122 2.73242188 56.28833008 C2.98387141 61.24481948 2.9703511 66.02510475 2.51257324 70.96987915 C1.93577669 78.09414127 1.88184006 85.16201413 1.91992188 92.30615234 C1.92328158 93.69884755 1.92609692 95.09154416 1.92842102 96.48424149 C1.93413211 99.48117251 1.94260993 102.47807717 1.95326233 105.47499466 C1.98191912 113.76422613 1.9882472 122.05350099 1.99609375 130.34277344 C1.99705457 131.21594782 1.99801538 132.0891222 1.99900532 132.98875642 C2.02071726 154.13103667 1.90934965 175.27223815 1.78125 196.4140625 C1.77005061 198.28717798 1.75886083 200.16029352 1.74768066 202.03340912 C1.68569084 212.37060193 1.62085231 222.70777527 1.55461693 233.04494166 C1.49229327 242.78753058 1.43270317 252.53013577 1.37324238 262.27274251 C1.25167759 282.18184655 1.12699994 302.09092993 1 322 C0.67 322 0.34 322 0 322 C0 215.74 0 109.48 0 0 Z " fill="#316B53" transform="translate(154,0)"/>
<path d="M0 0 C0.33 0 0.66 0 1 0 C1 99 1 198 1 300 C0.67 300 0.34 300 0 300 C0 286.47 0 272.94 0 259 C-0.99 259 -1.98 259 -3 259 C-3 257.35 -3 255.7 -3 254 C-2.34 253.67 -1.68 253.34 -1 253 C-1 249.7 -1 246.4 -1 243 C-1.66 243 -2.32 243 -3 243 C-3 242.34 -3 241.68 -3 241 C-2.01 241 -1.02 241 0 241 C0 161.47 0 81.94 0 0 Z " fill="#2F644B" transform="translate(1445,93)"/>
<path d="M0 0 C0.33 1.98 0.66 3.96 1 6 C1.78375 5.95875 2.5675 5.9175 3.375 5.875 C6 6 6 6 8 8 C8.1953125 10.6015625 8.1953125 10.6015625 8.125 13.625 C8.10695313 14.62789062 8.08890625 15.63078125 8.0703125 16.6640625 C8.04710937 17.43492188 8.02390625 18.20578125 8 19 C7.34 19 6.68 19 6 19 C6 15.37 6 11.74 6 8 C4.35 8.66 2.7 9.32 1 10 C0.67 12.97 0.34 15.94 0 19 C-2.27057377 19.05398987 -4.54151288 19.09278742 -6.8125 19.125 C-8.70935547 19.15980469 -8.70935547 19.15980469 -10.64453125 19.1953125 C-14 19 -14 19 -17 17 C-17 16.01 -17 15.02 -17 14 C-16.46375 14.309375 -15.9275 14.61875 -15.375 14.9375 C-12.6015043 16.17827439 -9.99957163 16.5909675 -7 17 C-7 15.35 -7 13.7 -7 12 C-7.63808594 11.79503906 -8.27617188 11.59007812 -8.93359375 11.37890625 C-9.75988281 11.10949219 -10.58617187 10.84007812 -11.4375 10.5625 C-12.26121094 10.29566406 -13.08492187 10.02882813 -13.93359375 9.75390625 C-16 9 -16 9 -17 8 C-17.28534319 5.28923972 -17.37081965 3.61076177 -15.9375 1.25 C-11.044429 -1.90682 -5.45515734 -1.00196768 0 0 Z " fill="#2F512D" transform="translate(1482,46)"/>
<path d="M0 0 C0.33 0 0.66 0 1 0 C1 84.15 1 168.3 1 255 C0.67 255 0.34 255 0 255 C-0.01981934 253.77893555 -0.03963867 252.55787109 -0.06005859 251.29980469 C-0.13616123 246.76720646 -0.22487161 242.2349273 -0.31738281 237.70263672 C-0.35565327 235.7414378 -0.39050954 233.78016916 -0.421875 231.81884766 C-0.4675674 228.99877003 -0.525555 226.17917162 -0.5859375 223.359375 C-0.59748871 222.48319519 -0.60903992 221.60701538 -0.62094116 220.70428467 C-0.64081085 219.88373596 -0.66068054 219.06318726 -0.68115234 218.21777344 C-0.69447601 217.49829529 -0.70779968 216.77881714 -0.7215271 216.03753662 C-0.9006605 213.91068187 -0.9006605 213.91068187 -2.07299805 211.85668945 C-2.53186401 210.93762817 -2.53186401 210.93762817 -3 210 C-2.15087891 208.07519531 -2.15087891 208.07519531 -1 206 C-0.63745194 203.49034037 -0.63745194 203.49034037 -0.5859375 200.796875 C-0.54726562 199.8171875 -0.50859375 198.8375 -0.46875 197.828125 C-0.4378125 196.81234375 -0.406875 195.7965625 -0.375 194.75 C-0.33632812 193.71875 -0.29765625 192.6875 -0.2578125 191.625 C-0.16368326 189.0835106 -0.07805021 186.54202567 0 184 C-0.99 184 -1.98 184 -3 184 C-2.67 182.02 -2.34 180.04 -2 178 C-1.67 178 -1.34 178 -1 178 C-1.00092179 177.38033639 -1.00184359 176.76067278 -1.00279331 176.12223148 C-1.02524971 160.77491073 -1.0416011 145.4275953 -1.05181217 130.08026218 C-1.05688617 122.65726172 -1.06377748 115.23427257 -1.07543945 107.8112793 C-1.13082171 71.86125954 -0.95263173 35.94083744 0 0 Z " fill="#2F5F47" transform="translate(1445,400)"/>
<path d="M0 0 C3.0625 0.5 3.0625 0.5 5.5 2.0625 C7.0625 4.5 7.0625 4.5 6.9375 8.125 C6.0625 11.5 6.0625 11.5 4.0625 13.5 C0.4375 13.625 0.4375 13.625 -2.9375 13.5 C-3.2675 12.51 -3.5975 11.52 -3.9375 10.5 C-4.5975 10.5 -5.2575 10.5 -5.9375 10.5 C-6.15681821 7.28333296 -6.20578383 5.06637697 -4.8125 2.125 C-2.9375 0.5 -2.9375 0.5 0 0 Z " fill="#C1D7BE" transform="translate(1497.9375,51.5)"/>
<path d="M0 0 C0.78375 0.350625 1.5675 0.70125 2.375 1.0625 C3.24125 1.371875 4.1075 1.68125 5 2 C5.66 1.67 6.32 1.34 7 1 C8.4606285 3.64738916 9 4.89448334 9 8 C6.03 7.505 6.03 7.505 3 7 C2.67 7.99 2.34 8.98 2 10 C0.02 10 -1.96 10 -4 10 C-4.33 10.99 -4.66 11.98 -5 13 C-5.99 13 -6.98 13 -8 13 C-8 11.68 -8 10.36 -8 9 C-8.66 9 -9.32 9 -10 9 C-10 7.68 -10 6.36 -10 5 C-9.34 5 -8.68 5 -8 5 C-7.67 4.34 -7.34 3.68 -7 3 C-6.67 4.32 -6.34 5.64 -6 7 C-4.03243548 6.96877057 -4.03243548 6.96877057 -2 6 C-0.6954344 3.00384054 -0.6954344 3.00384054 0 0 Z " fill="#266849" transform="translate(1015,571)"/>
<path d="M0 0 C0.66 0 1.32 0 2 0 C2.99 2.31 3.98 4.62 5 7 C5.66 4.69 6.32 2.38 7 0 C8.32 0 9.64 0 11 0 C11.66 2.64 12.32 5.28 13 8 C13.99 5.36 14.98 2.72 16 0 C16.99 0 17.98 0 19 0 C18.52140759 1.60433809 18.04210442 3.20846416 17.5625 4.8125 C17.29566406 5.70582031 17.02882813 6.59914063 16.75390625 7.51953125 C16.19612127 9.35473055 15.60655425 11.18033726 15 13 C14.01 13 13.02 13 12 13 C11.34 10.03 10.68 7.06 10 4 C9.34 4 8.68 4 8 4 C7.67 6.64 7.34 9.28 7 12 C5.68 12.33 4.36 12.66 3 13 C2.49242138 11.58603098 1.99425075 10.16868271 1.5 8.75 C1.08234375 7.56664062 1.08234375 7.56664062 0.65625 6.359375 C0 4 0 4 0 0 Z " fill="#C5DAC0" transform="translate(1506,52)"/>
<path d="M0 0 C0.66 0.66 1.32 1.32 2 2 C1.67 2.99 1.34 3.98 1 5 C0.34 4.34 -0.32 3.68 -1 3 C-2.98821313 2.60235737 -4.98944339 2.26224651 -7 2 C-7 3.65 -7 5.3 -7 7 C-4.98177083 7.45572917 -2.96354167 7.91145833 -0.9453125 8.3671875 C1 9 1 9 3 11 C3.3125 13.5 3.3125 13.5 3 16 C-0.68717438 18.45811625 -2.64345704 18.31118164 -7 18 C-7.99 17.34 -8.98 16.68 -10 16 C-10 15.01 -10 14.02 -10 13 C-9.46375 13.309375 -8.9275 13.61875 -8.375 13.9375 C-5.6015043 15.17827439 -2.99957163 15.5909675 0 16 C0 14.35 0 12.7 0 11 C-0.63808594 10.79503906 -1.27617188 10.59007812 -1.93359375 10.37890625 C-2.75988281 10.10949219 -3.58617187 9.84007812 -4.4375 9.5625 C-5.26121094 9.29566406 -6.08492187 9.02882813 -6.93359375 8.75390625 C-9 8 -9 8 -10 7 C-10.04063832 5.33382885 -10.042721 3.66611905 -10 2 C-6.60535554 -0.08901197 -3.95158471 -0.34361606 0 0 Z " fill="#C5DDC3" transform="translate(1475,47)"/>
<path d="M0 0 C2.475 0.99 2.475 0.99 5 2 C5 2.66 5 3.32 5 4 C4.01 4.495 4.01 4.495 3 5 C2.53101037 7.8159849 2.53101037 7.8159849 2.375 11.0625 C2.30023437 12.16722656 2.22546875 13.27195312 2.1484375 14.41015625 C2.09945313 15.26480469 2.05046875 16.11945313 2 17 C2.66 17 3.32 17 4 17 C4 18.32 4 19.64 4 21 C2.35 21 0.7 21 -1 21 C-1.33 21.99 -1.66 22.98 -2 24 C-2.33 24 -2.66 24 -3 24 C-3 22.35 -3 20.7 -3 19 C-4.32 18.67 -5.64 18.34 -7 18 C-4.69 17.34 -2.38 16.68 0 16 C0 14.02 0 12.04 0 10 C-0.99 10 -1.98 10 -3 10 C-3 9.34 -3 8.68 -3 8 C-2.01 8 -1.02 8 0 8 C-0.2784375 6.2984375 -0.2784375 6.2984375 -0.5625 4.5625 C-0.706875 3.386875 -0.85125 2.21125 -1 1 C-0.67 0.67 -0.34 0.34 0 0 Z " fill="#226747" transform="translate(1075,485)"/>
<path d="M0 0 C0 -0.66 0 -1.32 0 -2 C0.66 -1.67 1.32 -1.34 2 -1 C2 1.64 2 4.28 2 7 C1.34 6.34 0.68 5.68 0 5 C0 3.68 0 2.36 0 1 C-0.66 1 -1.32 1 -2 1 C-1.649375 2.010625 -1.29875 3.02125 -0.9375 4.0625 C0.1892448 7.92337378 -0.19468283 11.05394586 -1 15 C-1.99 15 -2.98 15 -4 15 C-3.34 15.66 -2.68 16.32 -2 17 C-2.375 19.125 -2.375 19.125 -3 21 C-3.33 20.01 -3.66 19.02 -4 18 C-7.18762365 15.87491756 -9.26512223 15.4979837 -13 15 C-13 14.67 -13 14.34 -13 14 C-11.88625 13.896875 -10.7725 13.79375 -9.625 13.6875 C-8.42875 13.460625 -7.2325 13.23375 -6 13 C-3.43312633 9.1496895 -4.16711276 7.41430237 -5 3 C-6.98 2.34 -8.96 1.68 -11 1 C-6.68398307 -1.87734462 -4.56105874 -2.76921423 0 0 Z " fill="#2C552C" transform="translate(1508,51)"/>
<path d="M0 0 C0.66 0 1.32 0 2 0 C2.33 1.98 2.66 3.96 3 6 C3.78375 5.95875 4.5675 5.9175 5.375 5.875 C8 6 8 6 10 8 C10.1953125 10.6015625 10.1953125 10.6015625 10.125 13.625 C10.10695313 14.62789062 10.08890625 15.63078125 10.0703125 16.6640625 C10.03550781 17.82035156 10.03550781 17.82035156 10 19 C9.34 19 8.68 19 8 19 C8 15.37 8 11.74 8 8 C6.35 8.66 4.7 9.32 3 10 C2.67 12.97 2.34 15.94 2 19 C1.34 19 0.68 19 0 19 C0 12.73 0 6.46 0 0 Z " fill="#CBE1CA" transform="translate(1480,46)"/>
<path d="M0 0 C2.64 0 5.28 0 8 0 C8.33 2.97 8.66 5.94 9 9 C6.8125 9.375 6.8125 9.375 4 9 C1.80074553 7.17212359 0.62324974 5.43487461 -1 3 C-0.67 2.01 -0.34 1.02 0 0 Z " fill="#317657" transform="translate(831,360)"/>
<path d="M0 0 C0.66 0.66 1.32 1.32 2 2 C4.10820797 1.6814823 4.10820797 1.6814823 6 1 C6.6875 3.3125 6.6875 3.3125 7 6 C5.8125 7.875 5.8125 7.875 4 9 C1.8125 8.6875 1.8125 8.6875 0 8 C-0.33 8.66 -0.66 9.32 -1 10 C-1.99 9.67 -2.98 9.34 -4 9 C-3.35455571 5.51460083 -1.89865603 2.97180943 0 0 Z " fill="#226748" transform="translate(702,664)"/>
<path d="M0 0 C1.32 0.33 2.64 0.66 4 1 C3.35702496 3.62573061 2.71075589 6.25057303 2.0625 8.875 C1.88009766 9.62136719 1.69769531 10.36773437 1.50976562 11.13671875 C0.11328125 16.7734375 0.11328125 16.7734375 -1 19 C-1.66 19 -2.32 19 -3 19 C-2.67 16.69 -2.34 14.38 -2 12 C-1.34 12 -0.68 12 0 12 C0 11.34 0 10.68 0 10 C-0.99 10 -1.98 10 -3 10 C-3 8.68 -3 7.36 -3 6 C-3.66 5.67 -4.32 5.34 -5 5 C-4.34 5 -3.68 5 -3 5 C-2.67 4.34 -2.34 3.68 -2 3 C-1.34 3.33 -0.68 3.66 0 4 C0 2.68 0 1.36 0 0 Z " fill="#317858" transform="translate(616,367)"/>
<path d="M0 0 C2.375 0.9375 2.375 0.9375 3.6875 2.8125 C4.375 4.9375 4.375 4.9375 4.375 7.9375 C3.055 8.2675 1.735 8.5975 0.375 8.9375 C0.375 8.2775 0.375 7.6175 0.375 6.9375 C-1.605 6.9375 -3.585 6.9375 -5.625 6.9375 C-5.955 5.6175 -6.285 4.2975 -6.625 2.9375 C-4.29597204 0.78099263 -3.23439697 -0.07700945 0 0 Z " fill="#357859" transform="translate(1000.625,367.0625)"/>
<path d="M0 0 C0.66 0 1.32 0 2 0 C2 0.66 2 1.32 2 2 C2.99 2 3.98 2 5 2 C5 2.66 5 3.32 5 4 C4.67 4.33 4.34 4.66 4 5 C4.99 5 5.98 5 7 5 C7.33 5.99 7.66 6.98 8 8 C4.93882432 10.62386487 4.26826873 11 0 11 C-0.19491452 9.54263913 -0.38069358 8.08405407 -0.5625 6.625 C-0.66691406 5.81289063 -0.77132812 5.00078125 -0.87890625 4.1640625 C-1 2 -1 2 0 0 Z " fill="#327858" transform="translate(753,344)"/>
<path d="M0 0 C0.66 0.33 1.32 0.66 2 1 C1.50682659 5.33992604 0.62089942 7.58143554 -2 11 C-2 12.32 -2 13.64 -2 15 C-4.31 15 -6.62 15 -9 15 C-8.67 13.02 -8.34 11.04 -8 9 C-7.030625 8.731875 -6.06125 8.46375 -5.0625 8.1875 C-3.5465625 7.5996875 -3.5465625 7.5996875 -2 7 C-1.67 6.01 -1.34 5.02 -1 4 C-1.33 3.34 -1.66 2.68 -2 2 C-1.34 2 -0.68 2 0 2 C0 1.34 0 0.68 0 0 Z " fill="#226748" transform="translate(1048,459)"/>
<path d="M0 0 C1.66611905 -0.042721 3.33382885 -0.04063832 5 0 C6 1 6 1 6.125 4.5 C6 8 6 8 5 9 C2.5 9.125 2.5 9.125 0 9 C-1 8 -1 8 -1.125 5.0625 C-1 2 -1 2 0 0 Z " fill="#1C491D" transform="translate(1496,54)"/>
<path d="M0 0 C0.66 0 1.32 0 2 0 C2.10957031 0.63808594 2.21914062 1.27617188 2.33203125 1.93359375 C2.49058594 2.75988281 2.64914062 3.58617187 2.8125 4.4375 C2.96332031 5.26121094 3.11414062 6.08492187 3.26953125 6.93359375 C3.51058594 7.61550781 3.75164062 8.29742187 4 9 C4.99 9.33 5.98 9.66 7 10 C6.05125 10.12375 5.1025 10.2475 4.125 10.375 C0.91332809 10.71687177 0.91332809 10.71687177 -1 13 C-2.32 12.34 -3.64 11.68 -5 11 C-5 10.01 -5 9.02 -5 8 C-4.01 8 -3.02 8 -2 8 C-1.34 5.36 -0.68 2.72 0 0 Z " fill="#30502E" transform="translate(1514,56)"/>
<path d="M0 0 C0.99 0.33 1.98 0.66 3 1 C3.99 0.67 4.98 0.34 6 0 C6.99 0 7.98 0 9 0 C9 0.99 9 1.98 9 3 C9.66 3 10.32 3 11 3 C10.67 4.32 10.34 5.64 10 7 C8.68 7 7.36 7 6 7 C5.01 7.495 5.01 7.495 4 8 C3.54625 7.525625 3.0925 7.05125 2.625 6.5625 C1.06741796 4.90972192 1.06741796 4.90972192 -1 4 C-0.67 2.68 -0.34 1.36 0 0 Z " fill="#307959" transform="translate(827,136)"/>
<path d="M0 0 C1.32 0 2.64 0 4 0 C4 3.3 4 6.6 4 10 C2.68 9.67 1.36 9.34 0 9 C-0.66 9.66 -1.32 10.32 -2 11 C-2.05399736 9.54207116 -2.09279177 8.08357288 -2.125 6.625 C-2.15980469 5.40683594 -2.15980469 5.40683594 -2.1953125 4.1640625 C-2 2 -2 2 0 0 Z " fill="#20491E" transform="translate(1484,54)"/>
<path d="M0 0 C0.99 0.33 1.98 0.66 3 1 C3.33 2.98 3.66 4.96 4 7 C3.67 6.01 3.34 5.02 3 4 C2.34 4.66 1.68 5.32 1 6 C1 6.99 1 7.98 1 9 C-1.31 9.33 -3.62 9.66 -6 10 C-6 7.37886292 -5.68707555 5.49064888 -5 3 C-4.360625 2.87625 -3.72125 2.7525 -3.0625 2.625 C-2.0415625 2.315625 -2.0415625 2.315625 -1 2 C-0.67 1.34 -0.34 0.68 0 0 Z " fill="#256849" transform="translate(868,493)"/>
<path d="M0 0 C0.99 0 1.98 0 3 0 C2.52140759 1.60433809 2.04210442 3.20846416 1.5625 4.8125 C1.29566406 5.70582031 1.02882813 6.59914063 0.75390625 7.51953125 C0.19612127 9.35473055 -0.39344575 11.18033726 -1 13 C-1.99 13 -2.98 13 -4 13 C-5.32 9.04 -6.64 5.08 -8 1 C-7.01 1.33 -6.02 1.66 -5 2 C-3.8125 5.0625 -3.8125 5.0625 -3 8 C-2.01 5.36 -1.02 2.72 0 0 Z " fill="#D6EAD2" transform="translate(1522,52)"/>
<path d="M0 0 C3.63 0.66 7.26 1.32 11 2 C10.01 2.495 10.01 2.495 9 3 C9 3.66 9 4.32 9 5 C8.34 5 7.68 5 7 5 C6.67 5.99 6.34 6.98 6 8 C5.01 8.33 4.02 8.66 3 9 C3 7.68 3 6.36 3 5 C2.34 4.67 1.68 4.34 1 4 C1.33 3.34 1.66 2.68 2 2 C1.34 2 0.68 2 0 2 C0 1.34 0 0.68 0 0 Z " fill="#216848" transform="translate(891,419)"/>
<path d="M0 0 C3.75504711 1.45356662 3.75504711 1.45356662 4.8125 3.8125 C5.03322704 6.38764878 4.62444329 8.50222685 4 11 C2.35 11 0.7 11 -1 11 C-0.67 9.35 -0.34 7.7 0 6 C-0.66 6 -1.32 6 -2 6 C-1.125 1.125 -1.125 1.125 0 0 Z " fill="#317858" transform="translate(905,382)"/>
<path d="M0 0 C1.98 0.66 3.96 1.32 6 2 C6 3.32 6 4.64 6 6 C6.185625 7.03125 6.37125 8.0625 6.5625 9.125 C7 12 7 12 6 14 C5.34 14 4.68 14 4 14 C4 14.99 4 15.98 4 17 C3.34 17 2.68 17 2 17 C2.33 13.7 2.66 10.4 3 7 C2.34 6.67 1.68 6.34 1 6 C0.375 2.9375 0.375 2.9375 0 0 Z " fill="#216647" transform="translate(943,362)"/>
<path d="M0 0 C0 1.98 0 3.96 0 6 C0.66 6 1.32 6 2 6 C2.33 7.98 2.66 9.96 3 12 C2.01 11.67 1.02 11.34 0 11 C0 10.34 0 9.68 0 9 C-2.31 8.34 -4.62 7.68 -7 7 C-7 6.34 -7 5.68 -7 5 C-5.68 5 -4.36 5 -3 5 C-3.33 4.01 -3.66 3.02 -4 2 C-1 0 -1 0 0 0 Z " fill="#367D5D" transform="translate(544,382)"/>
<path d="M0 0 C0.66 0 1.32 0 2 0 C2.33 1.32 2.66 2.64 3 4 C3.66 3.67 4.32 3.34 5 3 C5.33 4.65 5.66 6.3 6 8 C3.69 8.66 1.38 9.32 -1 10 C-1.02689216 8.52093108 -1.04634621 7.04172517 -1.0625 5.5625 C-1.07410156 4.73878906 -1.08570313 3.91507812 -1.09765625 3.06640625 C-1 1 -1 1 0 0 Z " fill="#216546" transform="translate(1020,496)"/>
<path d="M0 0 C0.66 0.66 1.32 1.32 2 2 C2.825 2.309375 3.65 2.61875 4.5 2.9375 C7 4 7 4 9 7 C8.625 9.1875 8.625 9.1875 8 11 C7.34 9.68 6.68 8.36 6 7 C3.36 7 0.72 7 -2 7 C-1.34 4.69 -0.68 2.38 0 0 Z " fill="#226748" transform="translate(799,441)"/>
<path d="M0 0 C0.66 0.33 1.32 0.66 2 1 C1.67 1.66 1.34 2.32 1 3 C2.32 2.67 3.64 2.34 5 2 C5 2.66 5 3.32 5 4 C5.99 3.67 6.98 3.34 8 3 C7.6875 4.875 7.6875 4.875 7 7 C3.5647952 9.29013653 2.014669 9.17842973 -2 9 C-2 6 -2 6 0 4 C0 2.68 0 1.36 0 0 Z " fill="#216848" transform="translate(875,400)"/>
<path d="M0 0 C5.75 0.875 5.75 0.875 8 2 C8 3.65 8 5.3 8 7 C5.125 7.1875 5.125 7.1875 2 7 C0 4 0 4 0 0 Z " fill="#2B502C" transform="translate(1467,56)"/>
<path d="M0 0 C1 1 1 1 1.11352539 2.76586914 C1.10828857 3.51473389 1.10305176 4.26359863 1.09765625 5.03515625 C1.09443359 5.84404297 1.09121094 6.65292969 1.08789062 7.48632812 C1.07951172 8.33646484 1.07113281 9.18660156 1.0625 10.0625 C1.05798828 10.91650391 1.05347656 11.77050781 1.04882812 12.65039062 C1.03700373 14.76695663 1.01906769 16.88348685 1 19 C0.67 19 0.34 19 0 19 C-0.03738281 18.10796875 -0.07476563 17.2159375 -0.11328125 16.296875 C-0.17902344 15.12640625 -0.24476562 13.9559375 -0.3125 12.75 C-0.37050781 11.58984375 -0.42851563 10.4296875 -0.48828125 9.234375 C-1.02419646 5.8470636 -1.49738034 4.32061096 -4 2 C-6.0488648 1.51942285 -6.0488648 1.51942285 -8.1875 1.75 C-10.0746875 1.87375 -10.0746875 1.87375 -12 2 C-11.67 1.34 -11.34 0.68 -11 0 C-7.11680775 -0.80594556 -3.77207021 -1.45079624 0 0 Z " fill="#577957" transform="translate(1479,46)"/>
<path d="M0 0 C0.66 0 1.32 0 2 0 C2 0.66 2 1.32 2 2 C5.465 1.505 5.465 1.505 9 1 C8.75 3.375 8.75 3.375 8 6 C5.9375 7.3125 5.9375 7.3125 4 8 C4 7.34 4 6.68 4 6 C2.68 5.67 1.36 5.34 0 5 C0 3.35 0 1.7 0 0 Z " fill="#2F7556" transform="translate(796,366)"/>
<path d="M0 0 C2.31 0.66 4.62 1.32 7 2 C7 2.33 7 2.66 7 3 C8.65 3.33 10.3 3.66 12 4 C12 4.66 12 5.32 12 6 C8.37169157 6.92817192 6.58926645 7.26901295 3.125 5.6875 C2.42375 5.130625 1.7225 4.57375 1 4 C1 3.34 1 2.68 1 2 C0.34 1.67 -0.32 1.34 -1 1 C-0.67 0.67 -0.34 0.34 0 0 Z M12 2 C12.99 2.495 12.99 2.495 14 3 C13.01 3.495 13.01 3.495 12 4 C12 3.34 12 2.68 12 2 Z " fill="#226343" transform="translate(964,654)"/>
<path d="M0 0 C3 1 3 1 4.375 3.3125 C5 6 5 6 3.625 8.3125 C2.820625 9.1478125 2.820625 9.1478125 2 10 C2.66 10.33 3.32 10.66 4 11 C1.36 11.66 -1.28 12.32 -4 13 C-3.34 12.01 -2.68 11.02 -2 10 C-1.34 10 -0.68 10 0 10 C0 6.7 0 3.4 0 0 Z " fill="#216848" transform="translate(986,349)"/>
<path d="M0 0 C0.33 0.99 0.66 1.98 1 3 C2.65 3 4.3 3 6 3 C5.67 3.99 5.34 4.98 5 6 C5.66 6 6.32 6 7 6 C6.625 7.9375 6.625 7.9375 6 10 C5.01 10.495 5.01 10.495 4 11 C3.67 9.02 3.34 7.04 3 5 C1.35 5 -0.3 5 -2 5 C-2.33 4.01 -2.66 3.02 -3 2 C-2.01 1.34 -1.02 0.68 0 0 Z " fill="#337A5A" transform="translate(861,381)"/>
<path d="M0 0 C-0.66 1.65 -1.32 3.3 -2 5 C-1.34 5.33 -0.68 5.66 0 6 C-1.65 6.66 -3.3 7.32 -5 8 C-5 7.34 -5 6.68 -5 6 C-6.32 5.67 -7.64 5.34 -9 5 C-8.67 4.01 -8.34 3.02 -8 2 C-7.01 2.33 -6.02 2.66 -5 3 C-5 2.34 -5 1.68 -5 1 C-2 0 -2 0 0 0 Z " fill="#307656" transform="translate(805,379)"/>
<path d="M0 0 C6.625 0.75 6.625 0.75 10 3 C9.67 3.99 9.34 4.98 9 6 C4.545 5.01 4.545 5.01 0 4 C0 2.68 0 1.36 0 0 Z " fill="#1E6341" transform="translate(1032,520)"/>
<path d="M0 0 C0.66 0 1.32 0 2 0 C2 0.99 2 1.98 2 3 C3.32 2.67 4.64 2.34 6 2 C5.67 3.98 5.34 5.96 5 8 C2.69 8 0.38 8 -2 8 C-1.34 5.36 -0.68 2.72 0 0 Z " fill="#246849" transform="translate(1146,422)"/>
<path d="M0 0 C2.475 0.99 2.475 0.99 5 2 C4.01 3.98 3.02 5.96 2 8 C0.35 7.01 -1.3 6.02 -3 5 C-1.125 1.125 -1.125 1.125 0 0 Z " fill="#246846" transform="translate(1125,567)"/>
<path d="M0 0 C0.66 0 1.32 0 2 0 C2 3.3 2 6.6 2 10 C1.01 10.495 1.01 10.495 0 11 C-0.99 10.67 -1.98 10.34 -3 10 C-3.33 9.01 -3.66 8.02 -4 7 C-3.01 7 -2.02 7 -1 7 C-0.67 4.69 -0.34 2.38 0 0 Z " fill="#317B5A" transform="translate(691,365)"/>
<path d="M0 0 C0.99 0.33 1.98 0.66 3 1 C2.34 3.97 1.68 6.94 1 10 C0.34 10 -0.32 10 -1 10 C-2.38125018 7.23749964 -2.19079306 5.05268901 -2 2 C-1.34 1.34 -0.68 0.68 0 0 Z " fill="#256646" transform="translate(854,584)"/>
<path d="M0 0 C2.875 0.25 2.875 0.25 6 1 C7.375 3.0625 7.375 3.0625 8 5 C4.52176885 6.15941038 2.54104422 5.70820884 -1 5 C-0.67 3.35 -0.34 1.7 0 0 Z " fill="#226748" transform="translate(896,398)"/>
<path d="M0 0 C1.32 0 2.64 0 4 0 C4 0.66 4 1.32 4 2 C4.66 2.33 5.32 2.66 6 3 C5.34 3 4.68 3 4 3 C4 4.32 4 5.64 4 7 C1.03 6.505 1.03 6.505 -2 6 C-1.34 4.02 -0.68 2.04 0 0 Z " fill="#24694A" transform="translate(900,567)"/>
<path d="M0 0 C0 1.65 0 3.3 0 5 C-1.65 5 -3.3 5 -5 5 C-5 3.35 -5 1.7 -5 0 C-5.99 -0.33 -6.98 -0.66 -8 -1 C-4.37673261 -2.2077558 -3.35853631 -1.54311128 0 0 Z " fill="#226746" transform="translate(901,528)"/>
<path d="M0 0 C1.32 0.33 2.64 0.66 4 1 C3.67 2.98 3.34 4.96 3 7 C1.68 7 0.36 7 -1 7 C-1 6.01 -1 5.02 -1 4 C-1.99 3.67 -2.98 3.34 -4 3 C-2.68 2.67 -1.36 2.34 0 2 C0 1.34 0 0.68 0 0 Z " fill="#226948" transform="translate(768,441)"/>
<path d="M0 0 C1.093125 0.33 2.18625 0.66 3.3125 1 C6.84578884 2.13086649 6.84578884 2.13086649 10 2 C9.67 6.62 9.34 11.24 9 16 C8.67 16 8.34 16 8 16 C7.93941406 15.21753906 7.87882812 14.43507813 7.81640625 13.62890625 C7.73261719 12.61699219 7.64882812 11.60507812 7.5625 10.5625 C7.48128906 9.55316406 7.40007812 8.54382813 7.31640625 7.50390625 C7.26788532 5.06359221 7.26788532 5.06359221 6 4 C4.00041636 3.95919217 1.99954746 3.95745644 0 4 C0 2.68 0 1.36 0 0 Z " fill="#496848" transform="translate(1482,49)"/>
<path d="M0 0 C1.06546953 3.1964086 1.07427838 5.65747276 1 9 C0.01 9.495 0.01 9.495 -1 10 C-1 9.34 -1 8.68 -1 8 C-2.32 7.67 -3.64 7.34 -5 7 C-4.01 6.01 -3.02 5.02 -2 4 C-2.99 3.67 -3.98 3.34 -5 3 C-4.67 2.34 -4.34 1.68 -4 1 C-1.9375 0.375 -1.9375 0.375 0 0 Z " fill="#256847" transform="translate(960,520)"/>
<path d="M0 0 C0.66 0 1.32 0 2 0 C2 0.99 2 1.98 2 3 C2.99 3 3.98 3 5 3 C5.33 4.98 5.66 6.96 6 9 C5.01 9 4.02 9 3 9 C3 8.01 3 7.02 3 6 C2.01 6 1.02 6 0 6 C-1.125 2.25 -1.125 2.25 0 0 Z " fill="#317856" transform="translate(987,382)"/>
<path d="M0 0 C1.32 0 2.64 0 4 0 C3.67 2.97 3.34 5.94 3 9 C2.34 9 1.68 9 1 9 C0.67 8.01 0.34 7.02 0 6 C-0.66 6 -1.32 6 -2 6 C-1.33333333 4 -0.66666667 2 0 0 Z " fill="#327C5B" transform="translate(1186,114)"/>
<path d="M0 0 C1.485 0.99 1.485 0.99 3 2 C2.67 4.97 2.34 7.94 2 11 C1.01 11.33 0.02 11.66 -1 12 C-0.67 8.04 -0.34 4.08 0 0 Z " fill="#24694A" transform="translate(632,580)"/>
<path d="M0 0 C-0.66 1.65 -1.32 3.3 -2 5 C-2.66 5 -3.32 5 -4 5 C-4 4.34 -4 3.68 -4 3 C-6.31 3 -8.62 3 -11 3 C-11 2.34 -11 1.68 -11 1 C-7.32589215 -0.17571451 -3.83070817 -0.07366746 0 0 Z " fill="#337657" transform="translate(951,384)"/>
<path d="M0 0 C0.99 0.33 1.98 0.66 3 1 C3 3.31 3 5.62 3 8 C2.01 8 1.02 8 0 8 C0 7.01 0 6.02 0 5 C-1.32 4.67 -2.64 4.34 -4 4 C-4 3.34 -4 2.68 -4 2 C-2.68 2 -1.36 2 0 2 C0 1.34 0 0.68 0 0 Z " fill="#317C5B" transform="translate(724,16)"/>
<path d="M0 0 C-0.33 1.32 -0.66 2.64 -1 4 C-3.64 4 -6.28 4 -9 4 C-9 3.01 -9 2.02 -9 1 C-5.846632 0.29925156 -3.27275026 0 0 0 Z " fill="#377E5E" transform="translate(506,553)"/>
<path d="M0 0 C0.33 0 0.66 0 1 0 C1 1.65 1 3.3 1 5 C1.66 5 2.32 5 3 5 C2.67 6.32 2.34 7.64 2 9 C0.35 9 -1.3 9 -3 9 C-3 7.68 -3 6.36 -3 5 C-2.01 5 -1.02 5 0 5 C0 3.35 0 1.7 0 0 Z " fill="#266847" transform="translate(947,536)"/>
<path d="M0 0 C1.67542976 0.28604898 3.34385343 0.61781233 5 1 C4.3125 2.9375 4.3125 2.9375 3 5 C0.375 5.75 0.375 5.75 -2 6 C-1.125 1.125 -1.125 1.125 0 0 Z " fill="#24684A" transform="translate(1056,417)"/>
<path d="M0 0 C0.433125 0.66 0.86625 1.32 1.3125 2 C2.1478125 2.99 2.1478125 2.99 3 4 C3.99 4 4.98 4 6 4 C5.34 5.32 4.68 6.64 4 8 C2.35 8 0.7 8 -1 8 C-2.2077558 4.37673261 -1.54311128 3.35853631 0 0 Z " fill="#327C5B" transform="translate(817,259)"/>
<path d="M0 0 C0.99 0.33 1.98 0.66 3 1 C2.34 3.97 1.68 6.94 1 10 C-0.32 10 -1.64 10 -3 10 C-2.01 6.7 -1.02 3.4 0 0 Z " fill="#2C542D" transform="translate(1524,54)"/>
<path d="M0 0 C1.98 0.66 3.96 1.32 6 2 C6 2.66 6 3.32 6 4 C4.68 3.67 3.36 3.34 2 3 C2 3.66 2 4.32 2 5 C2.66 5.33 3.32 5.66 4 6 C2.02 6.99 2.02 6.99 0 8 C-0.98120464 4.94736336 -0.98120464 3.05263664 0 0 Z " fill="#266646" transform="translate(932,650)"/>
<path d="M0 0 C2.475 0.99 2.475 0.99 5 2 C5.33 1.34 5.66 0.68 6 0 C6 1.65 6 3.3 6 5 C1.25 6.125 1.25 6.125 -1 5 C-0.67 3.35 -0.34 1.7 0 0 Z " fill="#317454" transform="translate(1019,568)"/>
<path d="M0 0 C1.98 0 3.96 0 6 0 C5.67 2.97 5.34 5.94 5 9 C3.68 8.67 2.36 8.34 1 8 C1 6 1 6 2.5 4.375 C2.995 3.92125 3.49 3.4675 4 3 C3.34 3 2.68 3 2 3 C2 2.34 2 1.68 2 1 C1.34 0.67 0.68 0.34 0 0 Z " fill="#317959" transform="translate(1146,223)"/>
<path d="M0 0 C0.99 0 1.98 0 3 0 C2.67 1.65 2.34 3.3 2 5 C1.01 5.33 0.02 5.66 -1 6 C-1.33 6.66 -1.66 7.32 -2 8 C-2 7.34 -2 6.68 -2 6 C-3.32 5.34 -4.64 4.68 -6 4 C-5.01 3.67 -4.02 3.34 -3 3 C-3 3.66 -3 4.32 -3 5 C-2.34 5 -1.68 5 -1 5 C-0.67 3.35 -0.34 1.7 0 0 Z " fill="#226747" transform="translate(865,506)"/>
<path d="M0 0 C0.99 1.32 1.98 2.64 3 4 C2.67 4.66 2.34 5.32 2 6 C-0.31 5.67 -2.62 5.34 -5 5 C-5.33 4.01 -5.66 3.02 -6 2 C-3.525 2.495 -3.525 2.495 -1 3 C-0.67 2.01 -0.34 1.02 0 0 Z " fill="#317858" transform="translate(1034,389)"/>
<path d="M0 0 C1.32 0 2.64 0 4 0 C4.33 1.98 4.66 3.96 5 6 C3.68 6.33 2.36 6.66 1 7 C1.33 5.68 1.66 4.36 2 3 C1.01 3 0.02 3 -1 3 C-0.67 2.01 -0.34 1.02 0 0 Z " fill="#307657" transform="translate(846,350)"/>
<path d="M0 0 C0.99 0.33 1.98 0.66 3 1 C3 3.31 3 5.62 3 8 C1.68 7.67 0.36 7.34 -1 7 C-0.67 4.69 -0.34 2.38 0 0 Z " fill="#216848" transform="translate(858,337)"/>
<path d="M0 0 C0.66 0.33 1.32 0.66 2 1 C0.54782324 2.50596108 -0.91192861 4.00462104 -2.375 5.5 C-3.18710938 6.3353125 -3.99921875 7.170625 -4.8359375 8.03125 C-7 10 -7 10 -9 10 C-9 9.34 -9 8.68 -9 8 C-8.34 8 -7.68 8 -7 8 C-7 7.34 -7 6.68 -7 6 C-6.34 6 -5.68 6 -5 6 C-4.5978125 4.7934375 -4.5978125 4.7934375 -4.1875 3.5625 C-3.795625 2.716875 -3.40375 1.87125 -3 1 C-2.01 0.67 -1.02 0.34 0 0 Z " fill="#1F6735" transform="translate(1425,26)"/>
<path d="M0 0 C1.65 0 3.3 0 5 0 C3.515 3.96 3.515 3.96 2 8 C1.34 8 0.68 8 0 8 C0 5.36 0 2.72 0 0 Z " fill="#266747" transform="translate(1188,616)"/>
<path d="M0 0 C-0.33 0.66 -0.66 1.32 -1 2 C-1.66 2 -2.32 2 -3 2 C-3.33 2.99 -3.66 3.98 -4 5 C-5.32 4.67 -6.64 4.34 -8 4 C-7.67 2.68 -7.34 1.36 -7 0 C-3.98968256 -0.93423645 -3.13349732 -1.04449911 0 0 Z " fill="#347756" transform="translate(726,594)"/>
<path d="M0 0 C1.32 0 2.64 0 4 0 C3.67 2.31 3.34 4.62 3 7 C2.01 7.33 1.02 7.66 0 8 C-0.38063221 5.6739143 -0.71269945 3.33944736 -1 1 C-0.67 0.67 -0.34 0.34 0 0 Z " fill="#357A5B" transform="translate(892,515)"/>
<path d="M0 0 C2.31 0.33 4.62 0.66 7 1 C6.67 2.65 6.34 4.3 6 6 C5.67 5.34 5.34 4.68 5 4 C3.68 4 2.36 4 1 4 C0.67 2.68 0.34 1.36 0 0 Z " fill="#216848" transform="translate(499,503)"/>
<path d="M0 0 C0 1.65 0 3.3 0 5 C-2.31 4.67 -4.62 4.34 -7 4 C-7 3.01 -7 2.02 -7 1 C-4.50935112 0.31292445 -2.62113708 0 0 0 Z " fill="#216647" transform="translate(840,498)"/>
<path d="M0 0 C2.97 0.495 2.97 0.495 6 1 C6 1.66 6 2.32 6 3 C5.34 3 4.68 3 4 3 C4.33 4.65 4.66 6.3 5 8 C4.34 8 3.68 8 3 8 C2.01 5.36 1.02 2.72 0 0 Z " fill="#246A48" transform="translate(1187,472)"/>
<path d="M0 0 C0.99 0 1.98 0 3 0 C2.01 2.97 1.02 5.94 0 9 C-0.66 8.67 -1.32 8.34 -2 8 C-2.125 5.125 -2.125 5.125 -2 2 C-1.34 1.34 -0.68 0.68 0 0 Z " fill="#337657" transform="translate(861,435)"/>
<path d="M0 0 C1.32 0.33 2.64 0.66 4 1 C3.67 2.32 3.34 3.64 3 5 C0.36 5 -2.28 5 -5 5 C-5 4.34 -5 3.68 -5 3 C-3.35 3 -1.7 3 0 3 C0 2.01 0 1.02 0 0 Z " fill="#347857" transform="translate(861,425)"/>
<path d="M0 0 C0.99 0 1.98 0 3 0 C3.66 1.32 4.32 2.64 5 4 C5.99 4 6.98 4 8 4 C8 4.99 8 5.98 8 7 C5.125 6.6875 5.125 6.6875 2 6 C0 3 0 3 0 0 Z " fill="#2F7757" transform="translate(680,363)"/>
<path d="M0 0 C0.66 0 1.32 0 2 0 C2 0.99 2 1.98 2 3 C2.99 3.33 3.98 3.66 5 4 C5 4.66 5 5.32 5 6 C3.35 6 1.7 6 0 6 C-0.33 6.66 -0.66 7.32 -1 8 C-1.04241723 5.66705225 -1.04092937 3.33297433 -1 1 C-0.67 0.67 -0.34 0.34 0 0 Z " fill="#216848" transform="translate(1136,307)"/>
<path d="M0 0 C0.33 0.66 0.66 1.32 1 2 C1.66 2 2.32 2 3 2 C3.33 3.98 3.66 5.96 4 8 C2.68 8 1.36 8 0 8 C-0.38063221 5.6739143 -0.71269945 3.33944736 -1 1 C-0.67 0.67 -0.34 0.34 0 0 Z " fill="#1E6746" transform="translate(925,88)"/>
<path d="M0 0 C1.74627478 2.61941217 2.38722388 4.03824877 3 7 C1.68 7.33 0.36 7.66 -1 8 C-1 7.34 -1 6.68 -1 6 C-1.99 6 -2.98 6 -4 6 C-4 5.34 -4 4.68 -4 4 C-2.68 4 -1.36 4 0 4 C0 2.68 0 1.36 0 0 Z " fill="#357857" transform="translate(983,594)"/>
<path d="M0 0 C0.66 0 1.32 0 2 0 C1.67 2.64 1.34 5.28 1 8 C1.66 8.33 2.32 8.66 3 9 C1.35 8.67 -0.3 8.34 -2 8 C-2.20086443 4.28400809 -2.1519437 3.22791555 0 0 Z " fill="#216845" transform="translate(989,488)"/>
<path d="M0 0 C2.64 0 5.28 0 8 0 C7.67 1.32 7.34 2.64 7 4 C5.35 3.67 3.7 3.34 2 3 C1.67 3.66 1.34 4.32 1 5 C0.67 3.35 0.34 1.7 0 0 Z " fill="#216647" transform="translate(1126,387)"/>
<path d="M0 0 C0 1.32 0 2.64 0 4 C1.65 3.67 3.3 3.34 5 3 C5 3.66 5 4.32 5 5 C4.38125 5.12375 3.7625 5.2475 3.125 5.375 C0.80879168 5.87197356 0.80879168 5.87197356 -1 8 C-1.33 6.35 -1.66 4.7 -2 3 C-2.66 3 -3.32 3 -4 3 C-4 2.34 -4 1.68 -4 1 C-2 0 -2 0 0 0 Z " fill="#226546" transform="translate(836,608)"/>
<path d="M0 0 C1.32 0.33 2.64 0.66 4 1 C3.67 1.66 3.34 2.32 3 3 C2.01 3 1.02 3 0 3 C-0.12375 3.639375 -0.2475 4.27875 -0.375 4.9375 C-0.58125 5.618125 -0.7875 6.29875 -1 7 C-1.99 7.495 -1.99 7.495 -3 8 C-3 6.02 -3 4.04 -3 2 C-2.34 2 -1.68 2 -1 2 C-0.67 1.34 -0.34 0.68 0 0 Z " fill="#216747" transform="translate(1010,559)"/>
<path d="M0 0 C1.65 0.33 3.3 0.66 5 1 C4.67 2.65 4.34 4.3 4 6 C2 6 2 6 0.375 4.5 C-0.07875 4.005 -0.5325 3.51 -1 3 C-0.67 2.01 -0.34 1.02 0 0 Z " fill="#236947" transform="translate(1093,512)"/>
<path d="M0 0 C1.32 0 2.64 0 4 0 C4.33 1.32 4.66 2.64 5 4 C4.01 4 3.02 4 2 4 C2 5.65 2 7.3 2 9 C1.34 9 0.68 9 0 9 C0 6.03 0 3.06 0 0 Z " fill="#23694A" transform="translate(876,502)"/>
<path d="M0 0 C1.32 0.33 2.64 0.66 4 1 C4.33 2.32 4.66 3.64 5 5 C4.34 5 3.68 5 3 5 C2.67 5.99 2.34 6.98 2 8 C0.74335022 5.09399739 0 3.20395416 0 0 Z " fill="#337C5B" transform="translate(782,357)"/>
<path d="M0 0 C0.33 0.66 0.66 1.32 1 2 C3.02463255 2.65213292 3.02463255 2.65213292 5 3 C5 3.66 5 4.32 5 5 C2.69 5.66 0.38 6.32 -2 7 C-2.125 4.625 -2.125 4.625 -2 2 C-1.34 1.34 -0.68 0.68 0 0 Z " fill="#307757" transform="translate(618,354)"/>
<path d="M0 0 C0.33 1.65 0.66 3.3 1 5 C0.34 5 -0.32 5 -1 5 C-1 4.34 -1 3.68 -1 3 C-2.98 3.33 -4.96 3.66 -7 4 C-7 3.01 -7 2.02 -7 1 C-4.50935112 0.31292445 -2.62113708 0 0 0 Z " fill="#226949" transform="translate(943,232)"/>
<path d="M0 0 C2.31 0.66 4.62 1.32 7 2 C6.67 3.32 6.34 4.64 6 6 C3.5625 5.25 3.5625 5.25 1 4 C0.1875 1.875 0.1875 1.875 0 0 Z " fill="#367D5D" transform="translate(858,227)"/>
<path d="M0 0 C1.65 0 3.3 0 5 0 C5.33 1.98 5.66 3.96 6 6 C5.01 6 4.02 6 3 6 C3 5.34 3 4.68 3 4 C2.01 4 1.02 4 0 4 C0 2.68 0 1.36 0 0 Z " fill="#2D7756" transform="translate(648,228)"/>
<path d="M0 0 C2.12046792 3.53411321 2.53199289 6.94393835 3 11 C1.68 11 0.36 11 -1 11 C-1.125 3.375 -1.125 3.375 0 0 Z " fill="#3C593C" transform="translate(1505,52)"/>
<path d="M0 0 C1.98 0.495 1.98 0.495 4 1 C3.67 2.32 3.34 3.64 3 5 C1.68 5.33 0.36 5.66 -1 6 C-0.67 4.02 -0.34 2.04 0 0 Z " fill="#206342" transform="translate(980,602)"/>
<path d="M0 0 C0 0.99 0 1.98 0 3 C-2.64 3.33 -5.28 3.66 -8 4 C-7.67 3.01 -7.34 2.02 -7 1 C-4 0 -4 0 0 0 Z " fill="#347756" transform="translate(840,580)"/>
<path d="M0 0 C2.2477975 2.05233685 3.0022242 3.00667261 4 6 C1.525 7.485 1.525 7.485 -1 9 C-1.09765625 2.84765625 -1.09765625 2.84765625 -1 1 C-0.67 0.67 -0.34 0.34 0 0 Z " fill="#256849" transform="translate(833,515)"/>
<path d="M0 0 C2.97 0.495 2.97 0.495 6 1 C5.67 1.66 5.34 2.32 5 3 C6.32 3 7.64 3 9 3 C9 3.66 9 4.32 9 5 C7.02 5.33 5.04 5.66 3 6 C3 5.01 3 4.02 3 3 C2.34 3 1.68 3 1 3 C0.67 2.01 0.34 1.02 0 0 Z " fill="#367958" transform="translate(855,503)"/>
<path d="M0 0 C-0.185625 0.5775 -0.37125 1.155 -0.5625 1.75 C-1.04023546 4.20692525 -0.75729364 5.64397534 0 8 C-0.99 8 -1.98 8 -3 8 C-3.33 5.69 -3.66 3.38 -4 1 C-2 0 -2 0 0 0 Z " fill="#377D5E" transform="translate(1075,462)"/>
<path d="M0 0 C1.32 0 2.64 0 4 0 C4 1.65 4 3.3 4 5 C2.35 5 0.7 5 -1 5 C-0.67 3.35 -0.34 1.7 0 0 Z " fill="#216647" transform="translate(948,379)"/>
<path d="M0 0 C1.65 0 3.3 0 5 0 C5.33 1.32 5.66 2.64 6 4 C4.35 4.33 2.7 4.66 1 5 C0.67 3.35 0.34 1.7 0 0 Z " fill="#226949" transform="translate(715,369)"/>
<path d="M0 0 C0.66 0 1.32 0 2 0 C2 2.31 2 4.62 2 7 C0.35 7.33 -1.3 7.66 -3 8 C-3 7.01 -3 6.02 -3 5 C-2.34 4.67 -1.68 4.34 -1 4 C-0.34786708 1.97536745 -0.34786708 1.97536745 0 0 Z " fill="#206546" transform="translate(1268,368)"/>
<path d="M0 0 C1.98 0 3.96 0 6 0 C6 1.32 6 2.64 6 4 C3.69 3.67 1.38 3.34 -1 3 C-0.67 2.01 -0.34 1.02 0 0 Z " fill="#1F6847" transform="translate(899,254)"/>
<path d="M0 0 C-0.33 1.65 -0.66 3.3 -1 5 C-1.99 5 -2.98 5 -4 5 C-4 4.01 -4 3.02 -4 2 C-4.66 2 -5.32 2 -6 2 C-6 1.34 -6 0.68 -6 0 C-2.25 -1.125 -2.25 -1.125 0 0 Z " fill="#347B5B" transform="translate(1058,227)"/>
<path d="M0 0 C1.32 0.33 2.64 0.66 4 1 C4 1.66 4 2.32 4 3 C3.01 3 2.02 3 1 3 C0.67 3.99 0.34 4.98 0 6 C-1.32 5.67 -2.64 5.34 -4 5 C-3.01 4.67 -2.02 4.34 -1 4 C-0.26676204 1.98491642 -0.26676204 1.98491642 0 0 Z " fill="#206B49" transform="translate(813,221)"/>
<path d="M0 0 C1.32 0.33 2.64 0.66 4 1 C4.33 2.65 4.66 4.3 5 6 C3.35 5.67 1.7 5.34 0 5 C0 3.35 0 1.7 0 0 Z " fill="#36805F" transform="translate(1123,75)"/>
<path d="M0 0 C0.99 0 1.98 0 3 0 C2.01 3.3 1.02 6.6 0 10 C-0.66 9.67 -1.32 9.34 -2 9 C-1.34 6.03 -0.68 3.06 0 0 Z " fill="#C0DABF" transform="translate(1522,52)"/>
<path d="M0 0 C1.98 0 3.96 0 6 0 C5.34 1.32 4.68 2.64 4 4 C2.68 4 1.36 4 0 4 C0 2.68 0 1.36 0 0 Z " fill="#337F5D" transform="translate(792,51)"/>
<path d="M0 0 C2.475 0.99 2.475 0.99 5 2 C3.625 4.5 3.625 4.5 2 7 C1.34 7 0.68 7 0 7 C0 4.69 0 2.38 0 0 Z " fill="#236647" transform="translate(797,574)"/>
<path d="M0 0 C1.32 0.33 2.64 0.66 4 1 C3.67 1.99 3.34 2.98 3 4 C0.69 4.33 -1.62 4.66 -4 5 C-3.34 4.67 -2.68 4.34 -2 4 C-0.86649466 1.98330173 -0.86649466 1.98330173 0 0 Z " fill="#337657" transform="translate(978,475)"/>
<path d="M0 0 C2.97 0.495 2.97 0.495 6 1 C6 1.99 6 2.98 6 4 C4.02 4 2.04 4 0 4 C0 2.68 0 1.36 0 0 Z " fill="#337655" transform="translate(1308,456)"/>
<path d="M0 0 C0.33 0 0.66 0 1 0 C1.25 2.3125 1.25 2.3125 1 5 C-1 6.8125 -1 6.8125 -3 8 C-3.33 7.01 -3.66 6.02 -4 5 C-2.125 2.3125 -2.125 2.3125 0 0 Z " fill="#307555" transform="translate(1120,454)"/>
<path d="M0 0 C2.75 1.375 2.75 1.375 5 3 C2.42786866 4.61949011 1.32330841 5.04408751 -1.75 4.625 C-2.4925 4.41875 -3.235 4.2125 -4 4 C-4 3.34 -4 2.68 -4 2 C-2.3125 0.8125 -2.3125 0.8125 0 0 Z " fill="#327758" transform="translate(774,411)"/>
<path d="M0 0 C-0.33 1.32 -0.66 2.64 -1 4 C-2.32 4 -3.64 4 -5 4 C-5.33 4.66 -5.66 5.32 -6 6 C-6.33 4.68 -6.66 3.36 -7 2 C-2.25 0 -2.25 0 0 0 Z " fill="#206745" transform="translate(1053,300)"/>
<path d="M0 0 C0.66 0 1.32 0 2 0 C2 1.98 2 3.96 2 6 C1.01 6.495 1.01 6.495 0 7 C-0.66 6.67 -1.32 6.34 -2 6 C-1.125 1.125 -1.125 1.125 0 0 Z " fill="#327959" transform="translate(1038,258)"/>
<path d="M0 0 C1.32 0 2.64 0 4 0 C4 0.99 4 1.98 4 3 C5.32 3 6.64 3 8 3 C8 3.66 8 4.32 8 5 C6.02 5 4.04 5 2 5 C2 4.01 2 3.02 2 2 C1.34 2 0.68 2 0 2 C0 1.34 0 0.68 0 0 Z " fill="#337D5A" transform="translate(1064,201)"/>
<path d="M0 0 C-0.375 2.4375 -0.375 2.4375 -1 5 C-1.99 5.495 -1.99 5.495 -3 6 C-3.99 5.67 -4.98 5.34 -6 5 C-6 3 -6 3 -4.6875 1.375 C-3 0 -3 0 0 0 Z " fill="#317B5A" transform="translate(1046,188)"/>
<path d="M0 0 C0.66 0 1.32 0 2 0 C2.33 2.31 2.66 4.62 3 7 C1.68 6.67 0.36 6.34 -1 6 C-0.67 4.02 -0.34 2.04 0 0 Z " fill="#327C5B" transform="translate(1181,176)"/>
<path d="M0 0 C0.99 0.33 1.98 0.66 3 1 C3.04241723 3.33294775 3.04092937 5.66702567 3 8 C2 9 2 9 -0.5625 9.0625 C-1.366875 9.041875 -2.17125 9.02125 -3 9 C-1.68 8.67 -0.36 8.34 1 8 C0.67 5.36 0.34 2.72 0 0 Z " fill="#2F522D" transform="translate(1499,54)"/>
<path d="M0 0 C5.625 -0.25 5.625 -0.25 9 2 C8.67 3.32 8.34 4.64 8 6 C7.34 5.01 6.68 4.02 6 3 C2.91634129 2.7497843 2.91634129 2.7497843 0 3 C0 2.01 0 1.02 0 0 Z " fill="#D5EED7" transform="translate(1495,52)"/>
<path d="M0 0 C0.66 0.66 1.32 1.32 2 2 C1.67 2.99 1.34 3.98 1 5 C0.34 4.34 -0.32 3.68 -1 3 C-4.58343976 2.83322718 -4.58343976 2.83322718 -8 3 C-8 2.34 -8 1.68 -8 1 C-5.23749964 -0.38125018 -3.05268901 -0.19079306 0 0 Z " fill="#D3ECD2" transform="translate(1475,47)"/>
<path d="M0 0 C0.99 0 1.98 0 3 0 C3.66 0.66 4.32 1.32 5 2 C5.66 2 6.32 2 7 2 C7 2.66 7 3.32 7 4 C4.36 4.33 1.72 4.66 -1 5 C-0.67 3.35 -0.34 1.7 0 0 Z " fill="#307556" transform="translate(1025,473)"/>
<path d="M0 0 C1.98 0.99 1.98 0.99 4 2 C4 3.65 4 5.3 4 7 C2.68 6.67 1.36 6.34 0 6 C0 4 0 2 0 0 Z " fill="#387D5E" transform="translate(1039,460)"/>
<path d="M0 0 C0.66 0 1.32 0 2 0 C2.66 2.31 3.32 4.62 4 7 C1.525 6.01 1.525 6.01 -1 5 C-0.67 3.35 -0.34 1.7 0 0 Z " fill="#307757" transform="translate(757,385)"/>
<path d="M0 0 C2.475 0.495 2.475 0.495 5 1 C5 2.65 5 4.3 5 6 C3.68 5.67 2.36 5.34 1 5 C0.67 3.35 0.34 1.7 0 0 Z " fill="#347C59" transform="translate(755,267)"/>
<path d="M0 0 C1.65 0 3.3 0 5 0 C4.67 1.32 4.34 2.64 4 4 C2.68 4 1.36 4 0 4 C0 2.68 0 1.36 0 0 Z " fill="#246545" transform="translate(1076,640)"/>
<path d="M0 0 C0.99 0.33 1.98 0.66 3 1 C2.34 1 1.68 1 1 1 C0.814375 2.2065625 0.814375 2.2065625 0.625 3.4375 C0.41875 4.283125 0.2125 5.12875 0 6 C-0.99 6.495 -0.99 6.495 -2 7 C-2.66 6.67 -3.32 6.34 -4 6 C-4 4 -4 4 -2 1.875 C-1.34 1.25625 -0.68 0.6375 0 0 Z " fill="#337655" transform="translate(969,583)"/>
<path d="M0 0 C1.32 0.33 2.64 0.66 4 1 C3.34 2.32 2.68 3.64 2 5 C1.01 5 0.02 5 -1 5 C-1.33 4.34 -1.66 3.68 -2 3 C-1.34 2.01 -0.68 1.02 0 0 Z " fill="#1B6443" transform="translate(1013,495)"/>
<path d="M0 0 C1.32 0 2.64 0 4 0 C4 1.32 4 2.64 4 4 C3.01 4 2.02 4 1 4 C1 4.66 1 5.32 1 6 C0.01 6 -0.98 6 -2 6 C-1.34 4.02 -0.68 2.04 0 0 Z " fill="#1E6545" transform="translate(751,389)"/>
<path d="M0 0 C2.64 0.33 5.28 0.66 8 1 C7.67 2.32 7.34 3.64 7 5 C4.69 4.01 2.38 3.02 0 2 C0 1.34 0 0.68 0 0 Z " fill="#216847" transform="translate(1046,359)"/>
<path d="M0 0 C2.76276177 0.52268466 5.3260876 1.10869587 8 2 C7.67 2.99 7.34 3.98 7 5 C4.69 4.01 2.38 3.02 0 2 C0 1.34 0 0.68 0 0 Z " fill="#206848" transform="translate(711,218)"/>
<path d="M0 0 C0.99 0.33 1.98 0.66 3 1 C3 2.98 3 4.96 3 7 C2.67 6.34 2.34 5.68 2 5 C1.01 5 0.02 5 -1 5 C-0.67 3.35 -0.34 1.7 0 0 Z " fill="#34805E" transform="translate(1133,81)"/>
<path d="M0 0 C0.66 0 1.32 0 2 0 C4 3 4 3 4 6 C2.0625 5.6875 2.0625 5.6875 0 5 C-0.33 4.01 -0.66 3.02 -1 2 C-0.67 1.34 -0.34 0.68 0 0 Z " fill="#368563" transform="translate(1266,50)"/>
<path d="M0 0 C2.475 0.495 2.475 0.495 5 1 C4.67 2.32 4.34 3.64 4 5 C2.68 4.67 1.36 4.34 0 4 C0 2.68 0 1.36 0 0 Z " fill="#357A5B" transform="translate(635,610)"/>
<path d="M0 0 C2.475 0.99 2.475 0.99 5 2 C4.01 3.485 4.01 3.485 3 5 C2.01 5 1.02 5 0 5 C-0.5625 3.0625 -0.5625 3.0625 -1 1 C-0.67 0.67 -0.34 0.34 0 0 Z " fill="#256648" transform="translate(763,563)"/>
<path d="M0 0 C4.51720311 -0.36625971 4.51720311 -0.36625971 6.8125 1.375 C8 3 8 3 8 5 C7.01 5.33 6.02 5.66 5 6 C4.731875 5.195625 4.46375 4.39125 4.1875 3.5625 C3.795625 2.716875 3.40375 1.87125 3 1 C2.01 0.67 1.02 0.34 0 0 Z " fill="#226849" transform="translate(897,488)"/>
<path d="M0 0 C0.99 0.33 1.98 0.66 3 1 C1.8125 3 1.8125 3 0 5 C-2.6875 5.25 -2.6875 5.25 -5 5 C-4.01 4.67 -3.02 4.34 -2 4 C-2 3.01 -2 2.02 -2 1 C-1.34 0.67 -0.68 0.34 0 0 Z " fill="#307556" transform="translate(1045,463)"/>
<path d="M0 0 C0.33 0.99 0.66 1.98 1 3 C2.32 3 3.64 3 5 3 C4.67 3.99 4.34 4.98 4 6 C2.68 6 1.36 6 0 6 C-0.38218767 4.34385343 -0.71395102 2.67542976 -1 1 C-0.67 0.67 -0.34 0.34 0 0 Z " fill="#327758" transform="translate(945,453)"/>
<path d="M0 0 C2.31 0 4.62 0 7 0 C6.01 0.495 6.01 0.495 5 1 C4.67 1.99 4.34 2.98 4 4 C4 3.34 4 2.68 4 2 C2.35 2.66 0.7 3.32 -1 4 C-0.67 2.68 -0.34 1.36 0 0 Z " fill="#226947" transform="translate(761,456)"/>
<path d="M0 0 C0.33 0 0.66 0 1 0 C0.67 2.64 0.34 5.28 0 8 C-0.99 8 -1.98 8 -3 8 C-1.125 1.125 -1.125 1.125 0 0 Z " fill="#317657" transform="translate(805,449)"/>
<path d="M0 0 C-0.33 0.66 -0.66 1.32 -1 2 C-1.66 1.67 -2.32 1.34 -3 1 C-3 1.66 -3 2.32 -3 3 C-4.65 3 -6.3 3 -8 3 C-7.67 2.01 -7.34 1.02 -7 0 C-4.05610218 -1.17755913 -3.10046087 -1.03348696 0 0 Z " fill="#317857" transform="translate(998,393)"/>
<path d="M0 0 C1.65 0 3.3 0 5 0 C4.34 1.32 3.68 2.64 3 4 C1.68 3.67 0.36 3.34 -1 3 C-0.67 2.01 -0.34 1.02 0 0 Z " fill="#1D6444" transform="translate(704,388)"/>
<path d="M0 0 C0.99 0.33 1.98 0.66 3 1 C3 1.99 3 2.98 3 4 C3.66 4 4.32 4 5 4 C5 4.99 5 5.98 5 7 C4.01 7 3.02 7 2 7 C2 6.01 2 5.02 2 4 C1.34 4 0.68 4 0 4 C0 2.68 0 1.36 0 0 Z " fill="#216848" transform="translate(479,380)"/>
<path d="M0 0 C1.66611905 -0.042721 3.33382885 -0.04063832 5 0 C6 1 6 1 6.0625 3.5625 C6.041875 4.366875 6.02125 5.17125 6 6 C5.34 6 4.68 6 4 6 C3.67 5.01 3.34 4.02 3 3 C1.50014391 1.33289654 1.50014391 1.33289654 0 0 Z " fill="#367C5D" transform="translate(941,368)"/>
<path d="M0 0 C0.33 0.99 0.66 1.98 1 3 C0.34 3 -0.32 3 -1 3 C-1.33 4.65 -1.66 6.3 -2 8 C-3.0625 6.1875 -3.0625 6.1875 -4 4 C-3.67 3.01 -3.34 2.02 -3 1 C-2.01 0.67 -1.02 0.34 0 0 Z " fill="#226748" transform="translate(1016,312)"/>
<path d="M0 0 C2 1.25 2 1.25 4 3 C4 4.32 4 5.64 4 7 C2.68 7 1.36 7 0 7 C0 4.69 0 2.38 0 0 Z " fill="#377C5E" transform="translate(1032,301)"/>
<path d="M0 0 C0.598125 0.20625 1.19625 0.4125 1.8125 0.625 C0.8225 2.11 0.8225 2.11 -0.1875 3.625 C-2.8125 3.8125 -2.8125 3.8125 -5.1875 3.625 C-5.1875 2.965 -5.1875 2.305 -5.1875 1.625 C-2.1875 -0.375 -2.1875 -0.375 0 0 Z " fill="#358260" transform="translate(1245.1875,64.375)"/>
<path d="M0 0 C1.98 0 3.96 0 6 0 C5.34 1.32 4.68 2.64 4 4 C2.68 3.67 1.36 3.34 0 3 C0 2.01 0 1.02 0 0 Z " fill="#368361" transform="translate(794,22)"/>
<path d="M0 0 C0.66 0 1.32 0 2 0 C3.4606285 2.64738916 4 3.89448334 4 7 C2.68 6.67 1.36 6.34 0 6 C0 4.02 0 2.04 0 0 Z " fill="#1D603F" transform="translate(950,641)"/>
<path d="M0 0 C1.65 1.65 3.3 3.3 5 5 C4.01 5.33 3.02 5.66 2 6 C2 5.34 2 4.68 2 4 C1.01 4 0.02 4 -1 4 C-0.67 2.68 -0.34 1.36 0 0 Z " fill="#206143" transform="translate(1015,571)"/>
<path d="M0 0 C0.33 0.66 0.66 1.32 1 2 C1.99 2.33 2.98 2.66 4 3 C4 3.66 4 4.32 4 5 C2.35 5 0.7 5 -1 5 C-1.33 4.01 -1.66 3.02 -2 2 C-1.34 2 -0.68 2 0 2 C0 1.34 0 0.68 0 0 Z " fill="#2F7656" transform="translate(797,496)"/>
<path d="M0 0 C1.32 0 2.64 0 4 0 C3.67 1.32 3.34 2.64 3 4 C1.35 4 -0.3 4 -2 4 C-1.34 2.68 -0.68 1.36 0 0 Z " fill="#34795A" transform="translate(686,468)"/>
<path d="M0 0 C0.66 0 1.32 0 2 0 C2.66 1.98 3.32 3.96 4 6 C3.01 6.33 2.02 6.66 1 7 C0.67 4.69 0.34 2.38 0 0 Z " fill="#347B5B" transform="translate(489,432)"/>
<path d="M0 0 C1.98 0.495 1.98 0.495 4 1 C3.34 1.66 2.68 2.32 2 3 C1.35232207 5.57061311 1.35232207 5.57061311 1 8 C0.34 8 -0.32 8 -1 8 C-0.67 5.36 -0.34 2.72 0 0 Z " fill="#327959" transform="translate(973,375)"/>
<path d="M0 0 C0.99 0 1.98 0 3 0 C3.103125 0.639375 3.20625 1.27875 3.3125 1.9375 C3.539375 2.618125 3.76625 3.29875 4 4 C4.99 4.33 5.98 4.66 7 5 C5.68 5.33 4.36 5.66 3 6 C0 2.25 0 2.25 0 0 Z " fill="#206848" transform="translate(581,332)"/>
<path d="M0 0 C1.98 0 3.96 0 6 0 C5.67 1.65 5.34 3.3 5 5 C4.34 5 3.68 5 3 5 C3 4.01 3 3.02 3 2 C2.01 2 1.02 2 0 2 C0 1.34 0 0.68 0 0 Z " fill="#2F7556" transform="translate(1022,291)"/>
<path d="M0 0 C2.475 0.495 2.475 0.495 5 1 C4.67 1.99 4.34 2.98 4 4 C2.68 4 1.36 4 0 4 C0 2.68 0 1.36 0 0 Z " fill="#347E5D" transform="translate(535,244)"/>
<path d="M0 0 C1.32 0 2.64 0 4 0 C3.67 1.65 3.34 3.3 3 5 C2.34 5 1.68 5 1 5 C0.34 3.68 -0.32 2.36 -1 1 C-0.67 0.67 -0.34 0.34 0 0 Z " fill="#327C5B" transform="translate(887,232)"/>
<path d="M0 0 C0.99 0 1.98 0 3 0 C3 1.65 3 3.3 3 5 C1.68 5 0.36 5 -1 5 C-0.67 3.35 -0.34 1.7 0 0 Z " fill="#327C5B" transform="translate(1013,184)"/>
<path d="M0 0 C2 3.75 2 3.75 2 6 C2.99 6.33 3.98 6.66 5 7 C3.02 7.33 1.04 7.66 -1 8 C-0.67 5.36 -0.34 2.72 0 0 Z " fill="#315D32" transform="translate(1516,59)"/>
<path d="M0 0 C1.98 0 3.96 0 6 0 C6 1.65 6 3.3 6 5 C4.35 4.67 2.7 4.34 1 4 C0.67 2.68 0.34 1.36 0 0 Z " fill="#235224" transform="translate(1508,64)"/>
<path d="M0 0 C0.99 0 1.98 0 3 0 C3 1.65 3 3.3 3 5 C1.68 5 0.36 5 -1 5 C-0.67 3.35 -0.34 1.7 0 0 Z " fill="#234C28" transform="translate(1496,54)"/>
<path d="M0 0 C0.99 0.495 0.99 0.495 2 1 C1.67 2.98 1.34 4.96 1 7 C1.66 7 2.32 7 3 7 C3.33 7.99 3.66 8.98 4 10 C2.68 10 1.36 10 0 10 C0 6.7 0 3.4 0 0 Z " fill="#2B4B2F" transform="translate(1491,55)"/>
<path d="M0 0 C0.99 0.33 1.98 0.66 3 1 C3 1.66 3 2.32 3 3 C3.66 3 4.32 3 5 3 C5.33 2.01 5.66 1.02 6 0 C6.33 1.32 6.66 2.64 7 4 C6.01 4.495 6.01 4.495 5 5 C2.375 3.6875 2.375 3.6875 0 2 C0 1.34 0 0.68 0 0 Z " fill="#1F4F1C" transform="translate(1520,48)"/>
<path d="M0 0 C-0.33 1.65 -0.66 3.3 -1 5 C-2.32 4.67 -3.64 4.34 -5 4 C-4.67 3.01 -4.34 2.02 -4 1 C-2 0 -2 0 0 0 Z " fill="#206543" transform="translate(1048,523)"/>
<path d="M0 0 C0.66 1.32 1.32 2.64 2 4 C1.34 4.66 0.68 5.32 0 6 C-0.99 6 -1.98 6 -3 6 C-1.125 1.125 -1.125 1.125 0 0 Z " fill="#337A5A" transform="translate(734,456)"/>
<path d="M0 0 C2.97 0.495 2.97 0.495 6 1 C5.67 2.32 5.34 3.64 5 5 C3.0625 4.1875 3.0625 4.1875 1 3 C0.67 2.01 0.34 1.02 0 0 Z " fill="#206546" transform="translate(911,443)"/>
<path d="M0 0 C1.98 0 3.96 0 6 0 C5.67 1.65 5.34 3.3 5 5 C4.34 5 3.68 5 3 5 C3 4.01 3 3.02 3 2 C2.01 2 1.02 2 0 2 C0 1.34 0 0.68 0 0 Z " fill="#1F6746" transform="translate(701,403)"/>
<path d="M0 0 C2.475 0.495 2.475 0.495 5 1 C4.34 2.32 3.68 3.64 3 5 C1.5 3.625 1.5 3.625 0 2 C0 1.34 0 0.68 0 0 Z " fill="#347B5A" transform="translate(1019,390)"/>
<path d="M0 0 C0.99 0 1.98 0 3 0 C3 2.64 3 5.28 3 8 C2.34 8 1.68 8 1 8 C1.33 6.35 1.66 4.7 2 3 C1.34 3 0.68 3 0 3 C0 2.01 0 1.02 0 0 Z " fill="#206747" transform="translate(1142,339)"/>
<path d="M0 0 C0.66 0 1.32 0 2 0 C2 0.99 2 1.98 2 3 C2.66 3 3.32 3 4 3 C4 3.99 4 4.98 4 6 C2.68 5.67 1.36 5.34 0 5 C0 3.35 0 1.7 0 0 Z " fill="#367D5D" transform="translate(680,331)"/>
<path d="M0 0 C0.66 0 1.32 0 2 0 C2.66 1.98 3.32 3.96 4 6 C3.01 6 2.02 6 1 6 C1 5.01 1 4.02 1 3 C0.34 3 -0.32 3 -1 3 C-0.67 2.01 -0.34 1.02 0 0 Z " fill="#216848" transform="translate(708,330)"/>
<path d="M0 0 C1.98 0 3.96 0 6 0 C6 0.66 6 1.32 6 2 C4.68 2 3.36 2 2 2 C1.67 2.99 1.34 3.98 1 5 C0.67 5 0.34 5 0 5 C0 3.35 0 1.7 0 0 Z " fill="#236A4A" transform="translate(1139,315)"/>
<path d="M0 0 C0.33 1.32 0.66 2.64 1 4 C0.34 4 -0.32 4 -1 4 C-0.67 2.68 -0.34 1.36 0 0 Z M-2 4 C-1.67 5.32 -1.34 6.64 -1 8 C-1.99 8 -2.98 8 -4 8 C-3.34 6.68 -2.68 5.36 -2 4 Z " fill="#206647" transform="translate(1270,308)"/>
<path d="M0 0 C0.66 0 1.32 0 2 0 C2.33 1.32 2.66 2.64 3 4 C1.35 4.33 -0.3 4.66 -2 5 C-1.34 3.35 -0.68 1.7 0 0 Z " fill="#367D5D" transform="translate(894,272)"/>
<path d="M0 0 C1.32 0 2.64 0 4 0 C3.67 1.32 3.34 2.64 3 4 C1.68 4 0.36 4 -1 4 C-0.67 2.68 -0.34 1.36 0 0 Z " fill="#2F7958" transform="translate(738,247)"/>
<path d="M0 0 C0.33 0.99 0.66 1.98 1 3 C1.66 3.33 2.32 3.66 3 4 C0.69 4 -1.62 4 -4 4 C-3.67 3.01 -3.34 2.02 -3 1 C-2.01 0.67 -1.02 0.34 0 0 Z " fill="#317E5C" transform="translate(608,91)"/>
</svg>
